<svg version="1.2" xmlns="http://www.w3.org/2000/svg" viewBox="0 0 4096 1080" width="1024" height="270">
    <style>
        .a {
            fill: #8e93ee
        }
    </style>
    <g>
        <defs>
            <mask id="waveMask" style="filter: invert()" fill="white">
                <path d="M0 450 C1024 1000 2048 80 4096 720 L4096 1080 L0 1080 Z" />
            </mask>
        </defs>
        <path fill="#8e93ee" d="m265.6 338.3v-9c0-16.6-3.2-32-9.6-46.1-6.4-14-14.8-26.2-25.6-37.1-10.9-10.2-23.1-18.5-37.2-24.3-14-5.8-29.4-9-45.4-9-16 0-31.4 3.2-45.4 9-14.1 5.8-26.3 14.1-36.5 24.3-10.9 10.9-19.2 23.1-25.6 37.1-6.4 14.1-9.6 29.5-9.6 46.1v28.8c0 19.2 4.5 37.1 12.8 53.1 8.3 16 19.8 29.5 33.9 40.4l91.5 67.8c5.8 4.5 10.3 10.2 13.5 17.3 3.2 7 5.1 14.1 5.1 21.1v25c0 10.2-3.9 19.2-11.5 26.8-7.7 7.7-16.7 11.6-27.6 11.6-10.2 0-19.2-3.9-26.8-11.6-7.7-7.6-12.2-16.6-12.8-26.8v-9.6h-78.1v9.6c0 16 3.2 31.3 9.6 45.4 6.4 14.1 14.7 26.2 25.6 36.5 10.2 10.9 22.4 19.2 36.5 25.6 14 6.4 29.4 9.6 45.4 9.6 16 0 31.4-3.2 45.4-9.6 14.1-6.4 26.3-14.7 37.2-25.6 10.8-10.3 19.2-22.4 25.6-36.5 6.4-14.1 9.6-29.4 9.6-45.4v-28.8c0-19.9-5.2-38.4-14.8-55.1-9.6-16.6-21.7-30.7-35.8-42.2l-88.3-64c-6.4-4.5-10.9-10.3-14.1-17.3-3.2-7-4.5-14.1-4.5-21.8v-24.3c0-10.9 3.9-19.8 11.5-27.5 7.7-7.7 16.7-11.5 26.9-11.5 10.9 0 19.9 3.8 27.5 11.5 7.7 7.7 11.6 16.6 12.2 27.5v9zm288.6 0.6v-8.9c0-16.7-3.2-32-8.9-46.1-5.8-14.1-14.1-26.3-25-37.1-10.9-10.9-23.7-19.2-37.7-25.6-14.1-6.4-29.5-9.6-46.1-9.6-16 0-30.7 3.2-44.8 9.6-14.1 6.4-26.3 14.7-37.1 25.6-10.9 10.8-19.2 23-25 37.1-5.8 14.1-9 29.4-9 46.1v252.8c0 16 3.2 31.3 9 45.4 5.8 14.1 14.1 26.2 25 36.5 10.8 10.9 23 19.2 37.1 25.6 14.1 6.4 28.8 9.6 44.8 9.6 16.6 0 32-3.2 46.1-9.6 14-6.4 26.8-14.7 37.7-25.6 10.9-10.3 19.2-22.4 25-36.5 5.7-14.1 8.9-29.4 8.9-45.4v-9.6h-78v9.6c-0.7 10.8-4.5 19.8-11.6 27.5-7 7.7-16.6 11.5-28.1 11.5-10.9 0-19.9-3.8-27.5-11.5-7.7-7.7-11.6-16.7-11.6-27.5v-252.8c0-10.9 3.9-20.5 11.6-28.2 7.6-7.7 16.6-11.5 27.5-11.5 11.5 0 21.1 3.8 28.1 11.5 7.1 7.7 10.9 17.3 11.6 28.2v8.9zm281.6 194.6c0-13.5-2.6-26.3-7.1-38.4-4.5-12.2-10.9-23.1-19.2-32.7 11.5-10.8 20.5-23 26.3-37.1 5.7-14.1 8.9-29.4 8.9-46.7v-38.4c0-16.6-3.2-32-8.9-46.1-5.8-14.1-14.1-26.2-25-37.1-10.9-10.2-23-18.6-37.1-25-14.1-6.4-29.5-9.6-46.1-9.6h-116.5v467.2h78.1v-195.2h28.8c10.9 0 19.8 3.9 27.5 11.6 7.7 7.6 11.5 17.2 11.5 28.1v126.7c0 8.4 0.7 14.8 1.3 19.9 0.7 5.1 1.3 8.3 1.9 9.6h82c-3.2-5.1-5.2-9.6-5.8-14.1-0.6-4.5-1.3-9.6-1.3-15.4zm-145.9-117.1v-116.5h38.4c10.9 0 20.5 3.9 28.2 11.6 7.6 7.6 11.5 16.6 11.5 27.5v38.4c0 10.9-3.9 19.8-11.5 27.5-7.7 7.7-17.3 11.5-28.2 11.5zm309.1 117.1l32.7-195.2 33.2 195.2zm91.6 155.6h77.4l-87-467.2h-98l-87 467.2h77.4l15.4-87.1h87.7zm129.3-467.2v467.2h78v-195.2h38.4c16.7 0 32-3.2 46.1-8.9 14.1-5.8 26.3-14.1 37.1-25 10.9-10.2 19.2-22.4 25-36.5 5.8-14.1 9-29.4 9-46.1v-38.4c0-16.6-3.2-32-9-46-5.8-14.1-14.1-26.3-25-37.2-10.8-10.2-23-18.5-37.1-24.9-14.1-6.4-29.4-9.6-46.1-9.6zm78.1 193.9v-116.5h38.4c10.9 0 20.5 3.9 28.2 11.5 7.7 7.7 11.5 16.7 11.5 27.6v38.4c0 10.8-3.8 19.8-11.5 27.5-7.7 7.7-17.3 11.5-28.2 11.5z" />
        <path fill="#d8d9ed" d="m1724 423.9v-8.9c0-16.7-3.2-32-9-46.1-5.8-14.1-14.1-26.3-25-37.1-10.8-10.9-23.6-19.2-37.7-25.6-14.1-6.4-29.5-9.6-46.1-9.6-16 0-30.7 3.2-44.8 9.6-14.1 6.4-26.2 14.7-37.1 25.6-10.9 10.8-19.2 23-25 37.1-5.7 14.1-8.9 29.4-8.9 46.1v252.8c0 16 3.2 31.3 8.9 45.4 5.8 14.1 14.1 26.2 25 36.5 10.9 10.9 23 19.2 37.1 25.6 14.1 6.4 28.8 9.6 44.8 9.6 16.6 0 32-3.2 46.1-9.6 14.1-6.4 26.9-14.7 37.7-25.6 10.9-10.3 19.2-22.4 25-36.5 5.8-14.1 9-29.4 9-45.4v-9.6h-78.1v9.6c-0.7 10.8-4.5 19.8-11.5 27.5-7.1 7.7-16.7 11.5-28.2 11.5-10.9 0-19.8-3.8-27.5-11.5-7.7-7.7-11.5-16.7-11.5-27.5v-252.8c0-10.9 3.8-20.5 11.5-28.2 7.7-7.7 16.6-11.5 27.5-11.5 11.5 0 21.1 3.8 28.2 11.5 7 7.7 10.8 17.3 11.5 28.2v8.9zm85.7-92.8c-10.8 10.9-19.2 23.1-24.9 37.1-5.8 14.1-9 29.5-9 46.1v252.8c0 16 3.2 31.4 9 45.5 5.7 14 14.1 26.2 24.9 36.4 10.9 10.9 23.1 19.2 37.2 25.6 14 6.4 28.8 9.6 44.8 9.6 16.6 0 32-3.2 46-9.6 14.1-6.4 26.9-14.7 37.8-25.6 10.9-10.2 19.2-22.4 25-36.4 5.7-14.1 8.9-29.5 8.9-45.5v-252.8c0-16.6-3.2-32-8.9-46.1-5.8-14-14.1-26.2-25-37.1-10.9-10.2-23.7-18.5-37.8-24.9-14-6.4-29.4-9.6-46-9.6-16 0-30.8 3.2-44.8 9.6-14.1 6.4-26.3 14.7-37.2 24.9zm43.6 336v-252.8c0-10.9 3.8-19.8 11.5-27.5 7.7-7.7 16.6-11.5 27.5-11.5 11.5 0 21.1 3.8 28.8 11.5 7.7 7.7 11.5 16.6 11.5 27.5v252.8c0 10.9-3.8 19.9-11.5 27.5-7.7 7.7-17.3 11.6-28.8 11.6-10.9 0-19.8-3.9-27.5-11.6-7.7-7.6-11.5-16.6-11.5-27.5zm224.6-360.3v467.2h73v-275.2l48.6 275.2h55.7l48.6-275.2v275.2h73.6v-467.2h-97.3l-53.1 304-52.5-304zm374.4 0v467.2h78.1v-195.2h38.4c16.7 0 32-3.2 46.1-9 14.1-5.7 26.2-14 37.1-24.9 10.9-10.3 19.2-22.4 25-36.5 5.7-14.1 8.9-29.4 8.9-46.1v-38.4c0-16.6-3.2-32-8.9-46.1-5.8-14-14.1-26.2-25-37.1-10.9-10.2-23-18.5-37.1-24.9-14.1-6.4-29.4-9.6-46.1-9.6zm78.1 193.9v-116.5h38.4c10.9 0 20.5 3.8 28.2 11.5 7.6 7.7 11.5 16.7 11.5 27.5v38.4c0 10.9-3.9 19.9-11.5 27.6-7.7 7.6-17.3 11.5-28.2 11.5zm348.8-193.9v359.6c0 10.9-3.8 19.9-11.5 27.6-7.7 7.6-16.7 11.5-27.5 11.5-10.9 0-20.5-3.9-28.2-11.5-7.7-7.7-11.5-16.7-11.5-27.6v-359.6h-77.5v359.6c0 16 3.2 31.4 9 45.5 5.8 14.1 14.1 26.2 25 36.5 10.8 10.8 23.6 19.2 37.7 25.6 14.1 6.4 29.5 9.6 45.5 9.6 16.6 0 32-3.2 46-9.6 14.1-6.4 26.3-14.8 37.2-25.6 10.8-10.3 19.2-22.4 24.9-36.5 5.8-14.1 9-29.5 9-45.5v-359.6zm126.1 0v77.4h78v389.8h77.5v-389.8h78.7v-77.4zm479.4 0h-194.6v467.2h194.6v-77.5h-116.5v-117.7h106.9v-78.1h-106.9v-115.9h116.5zm275.8 311.7c0-13.4-2.6-26.2-7-38.4-4.5-12.1-10.9-23-19.2-32.6 11.5-10.9 20.4-23.1 26.2-37.1 5.8-14.1 9-29.5 9-46.8v-38.4c0-16.6-3.2-32-9-46-5.8-14.1-14.1-26.3-25-37.2-10.8-10.2-23-18.5-37.1-24.9-14.1-6.4-29.4-9.6-46.1-9.6h-116.4v467.2h78v-195.2h28.8c10.9 0 19.9 3.8 27.6 11.5 7.6 7.7 11.5 17.3 11.5 28.2v126.7c0 8.3 0.6 14.7 1.3 19.8 0.6 5.1 1.2 8.3 1.9 9.6h81.9c-3.2-5.1-5.1-9.6-5.8-14.1-0.6-4.4-1.2-9.6-1.2-15.3zm-146-117.1v-116.5h38.4c10.9 0 20.5 3.8 28.2 11.5 7.7 7.7 11.5 16.6 11.5 27.5v38.4c0 10.9-3.8 19.9-11.5 27.5-7.7 7.7-17.3 11.6-28.2 11.6zm450-78.1v-9c0-16.6-3.2-32-9.6-46.1-6.4-14-14.8-26.2-25.6-37.1-10.9-10.2-23.1-18.5-37.2-24.3-14-5.8-29.4-9-45.4-9-16 0-31.4 3.2-45.4 9-14.1 5.8-26.3 14.1-36.5 24.3-10.9 10.9-19.2 23.1-25.6 37.1-6.4 14.1-9.6 29.5-9.6 46.1v28.8c0 19.2 4.5 37.1 12.8 53.1 8.3 16 19.8 29.5 33.9 40.4l91.5 67.8c5.8 4.5 10.3 10.2 13.5 17.3 3.2 7 5.1 14.1 5.1 21.1v25c0 10.2-3.9 19.2-11.5 26.8-7.7 7.7-16.7 11.6-27.6 11.6-10.2 0-19.2-3.9-26.8-11.6-7.7-7.6-12.2-16.6-12.8-26.8v-9.6h-78.1v9.6c0 16 3.2 31.3 9.6 45.4 6.4 14.1 14.7 26.2 25.6 36.5 10.2 10.9 22.4 19.2 36.5 25.6 14 6.4 29.4 9.6 45.4 9.6 16 0 31.4-3.2 45.4-9.6 14.1-6.4 26.3-14.7 37.2-25.6 10.8-10.3 19.2-22.4 25.6-36.5 6.4-14.1 9.6-29.4 9.6-45.4v-28.8c0-19.9-5.2-38.4-14.8-55.1-9.6-16.6-21.7-30.7-35.8-42.2l-88.3-64c-6.4-4.5-10.9-10.3-14.1-17.3-3.2-7-4.5-14.1-4.5-21.8v-24.3c0-10.9 3.9-19.8 11.5-27.5 7.7-7.7 16.7-11.5 26.9-11.5 10.9 0 19.9 3.8 27.5 11.5 7.7 7.7 11.6 16.6 12.2 27.5v9z" />
        <path stroke="#ffffff" stroke-width="5px" mask="url(#waveMask)" fill="white" d="m265.6 338.3v-9c0-16.6-3.2-32-9.6-46.1-6.4-14-14.8-26.2-25.6-37.1-10.9-10.2-23.1-18.5-37.2-24.3-14-5.8-29.4-9-45.4-9-16 0-31.4 3.2-45.4 9-14.1 5.8-26.3 14.1-36.5 24.3-10.9 10.9-19.2 23.1-25.6 37.1-6.4 14.1-9.6 29.5-9.6 46.1v28.8c0 19.2 4.5 37.1 12.8 53.1 8.3 16 19.8 29.5 33.9 40.4l91.5 67.8c5.8 4.5 10.3 10.2 13.5 17.3 3.2 7 5.1 14.1 5.1 21.1v25c0 10.2-3.9 19.2-11.5 26.8-7.7 7.7-16.7 11.6-27.6 11.6-10.2 0-19.2-3.9-26.8-11.6-7.7-7.6-12.2-16.6-12.8-26.8v-9.6h-78.1v9.6c0 16 3.2 31.3 9.6 45.4 6.4 14.1 14.7 26.2 25.6 36.5 10.2 10.9 22.4 19.2 36.5 25.6 14 6.4 29.4 9.6 45.4 9.6 16 0 31.4-3.2 45.4-9.6 14.1-6.4 26.3-14.7 37.2-25.6 10.8-10.3 19.2-22.4 25.6-36.5 6.4-14.1 9.6-29.4 9.6-45.4v-28.8c0-19.9-5.2-38.4-14.8-55.1-9.6-16.6-21.7-30.7-35.8-42.2l-88.3-64c-6.4-4.5-10.9-10.3-14.1-17.3-3.2-7-4.5-14.1-4.5-21.8v-24.3c0-10.9 3.9-19.8 11.5-27.5 7.7-7.7 16.7-11.5 26.9-11.5 10.9 0 19.9 3.8 27.5 11.5 7.7 7.7 11.6 16.6 12.2 27.5v9zm288.6 0.6v-8.9c0-16.7-3.2-32-8.9-46.1-5.8-14.1-14.1-26.3-25-37.1-10.9-10.9-23.7-19.2-37.7-25.6-14.1-6.4-29.5-9.6-46.1-9.6-16 0-30.7 3.2-44.8 9.6-14.1 6.4-26.3 14.7-37.1 25.6-10.9 10.8-19.2 23-25 37.1-5.8 14.1-9 29.4-9 46.1v252.8c0 16 3.2 31.3 9 45.4 5.8 14.1 14.1 26.2 25 36.5 10.8 10.9 23 19.2 37.1 25.6 14.1 6.4 28.8 9.6 44.8 9.6 16.6 0 32-3.2 46.1-9.6 14-6.4 26.8-14.7 37.7-25.6 10.9-10.3 19.2-22.4 25-36.5 5.7-14.1 8.9-29.4 8.9-45.4v-9.6h-78v9.6c-0.7 10.8-4.5 19.8-11.6 27.5-7 7.7-16.6 11.5-28.1 11.5-10.9 0-19.9-3.8-27.5-11.5-7.7-7.7-11.6-16.7-11.6-27.5v-252.8c0-10.9 3.9-20.5 11.6-28.2 7.6-7.7 16.6-11.5 27.5-11.5 11.5 0 21.1 3.8 28.1 11.5 7.1 7.7 10.9 17.3 11.6 28.2v8.9zm281.6 194.6c0-13.5-2.6-26.3-7.1-38.4-4.5-12.2-10.9-23.1-19.2-32.7 11.5-10.8 20.5-23 26.3-37.1 5.7-14.1 8.9-29.4 8.9-46.7v-38.4c0-16.6-3.2-32-8.9-46.1-5.8-14.1-14.1-26.2-25-37.1-10.9-10.2-23-18.6-37.1-25-14.1-6.4-29.5-9.6-46.1-9.6h-116.5v467.2h78.1v-195.2h28.8c10.9 0 19.8 3.9 27.5 11.6 7.7 7.6 11.5 17.2 11.5 28.1v126.7c0 8.4 0.7 14.8 1.3 19.9 0.7 5.1 1.3 8.3 1.9 9.6h82c-3.2-5.1-5.2-9.6-5.8-14.1-0.6-4.5-1.3-9.6-1.3-15.4zm-145.9-117.1v-116.5h38.4c10.9 0 20.5 3.9 28.2 11.6 7.6 7.6 11.5 16.6 11.5 27.5v38.4c0 10.9-3.9 19.8-11.5 27.5-7.7 7.7-17.3 11.5-28.2 11.5zm309.1 117.1l32.7-195.2 33.2 195.2zm91.6 155.6h77.4l-87-467.2h-98l-87 467.2h77.4l15.4-87.1h87.7zm129.3-467.2v467.2h78v-195.2h38.4c16.7 0 32-3.2 46.1-8.9 14.1-5.8 26.3-14.1 37.1-25 10.9-10.2 19.2-22.4 25-36.5 5.8-14.1 9-29.4 9-46.1v-38.4c0-16.6-3.2-32-9-46-5.8-14.1-14.1-26.3-25-37.2-10.8-10.2-23-18.5-37.1-24.9-14.1-6.4-29.4-9.6-46.1-9.6zm78.1 193.9v-116.5h38.4c10.9 0 20.5 3.9 28.2 11.5 7.7 7.7 11.5 16.7 11.5 27.6v38.4c0 10.8-3.8 19.8-11.5 27.5-7.7 7.7-17.3 11.5-28.2 11.5z" />
        <path stroke="#ffffff" stroke-width="5px" mask="url(#waveMask)" fill="white" d="m1724 423.9v-8.9c0-16.7-3.2-32-9-46.1-5.8-14.1-14.1-26.3-25-37.1-10.8-10.9-23.6-19.2-37.7-25.6-14.1-6.4-29.5-9.6-46.1-9.6-16 0-30.7 3.2-44.8 9.6-14.1 6.4-26.2 14.7-37.1 25.6-10.9 10.8-19.2 23-25 37.1-5.7 14.1-8.9 29.4-8.9 46.1v252.8c0 16 3.2 31.3 8.9 45.4 5.8 14.1 14.1 26.2 25 36.5 10.9 10.9 23 19.2 37.1 25.6 14.1 6.4 28.8 9.6 44.8 9.6 16.6 0 32-3.2 46.1-9.6 14.1-6.4 26.9-14.7 37.7-25.6 10.9-10.3 19.2-22.4 25-36.5 5.8-14.1 9-29.4 9-45.4v-9.6h-78.1v9.6c-0.7 10.8-4.5 19.8-11.5 27.5-7.1 7.7-16.7 11.5-28.2 11.5-10.9 0-19.8-3.8-27.5-11.5-7.7-7.7-11.5-16.7-11.5-27.5v-252.8c0-10.9 3.8-20.5 11.5-28.2 7.7-7.7 16.6-11.5 27.5-11.5 11.5 0 21.1 3.8 28.2 11.5 7 7.7 10.8 17.3 11.5 28.2v8.9zm85.7-92.8c-10.8 10.9-19.2 23.1-24.9 37.1-5.8 14.1-9 29.5-9 46.1v252.8c0 16 3.2 31.4 9 45.5 5.7 14 14.1 26.2 24.9 36.4 10.9 10.9 23.1 19.2 37.2 25.6 14 6.4 28.8 9.6 44.8 9.6 16.6 0 32-3.2 46-9.6 14.1-6.4 26.9-14.7 37.8-25.6 10.9-10.2 19.2-22.4 25-36.4 5.7-14.1 8.9-29.5 8.9-45.5v-252.8c0-16.6-3.2-32-8.9-46.1-5.8-14-14.1-26.2-25-37.1-10.9-10.2-23.7-18.5-37.8-24.9-14-6.4-29.4-9.6-46-9.6-16 0-30.8 3.2-44.8 9.6-14.1 6.4-26.3 14.7-37.2 24.9zm43.6 336v-252.8c0-10.9 3.8-19.8 11.5-27.5 7.7-7.7 16.6-11.5 27.5-11.5 11.5 0 21.1 3.8 28.8 11.5 7.7 7.7 11.5 16.6 11.5 27.5v252.8c0 10.9-3.8 19.9-11.5 27.5-7.7 7.7-17.3 11.6-28.8 11.6-10.9 0-19.8-3.9-27.5-11.6-7.7-7.6-11.5-16.6-11.5-27.5zm224.6-360.3v467.2h73v-275.2l48.6 275.2h55.7l48.6-275.2v275.2h73.6v-467.2h-97.3l-53.1 304-52.5-304zm374.4 0v467.2h78.1v-195.2h38.4c16.7 0 32-3.2 46.1-9 14.1-5.7 26.2-14 37.1-24.9 10.9-10.3 19.2-22.4 25-36.5 5.7-14.1 8.9-29.4 8.9-46.1v-38.4c0-16.6-3.2-32-8.9-46.1-5.8-14-14.1-26.2-25-37.1-10.9-10.2-23-18.5-37.1-24.9-14.1-6.4-29.4-9.6-46.1-9.6zm78.1 193.9v-116.5h38.4c10.9 0 20.5 3.8 28.2 11.5 7.6 7.7 11.5 16.7 11.5 27.5v38.4c0 10.9-3.9 19.9-11.5 27.6-7.7 7.6-17.3 11.5-28.2 11.5zm348.8-193.9v359.6c0 10.9-3.8 19.9-11.5 27.6-7.7 7.6-16.7 11.5-27.5 11.5-10.9 0-20.5-3.9-28.2-11.5-7.7-7.7-11.5-16.7-11.5-27.6v-359.6h-77.5v359.6c0 16 3.2 31.4 9 45.5 5.8 14.1 14.1 26.2 25 36.5 10.8 10.8 23.6 19.2 37.7 25.6 14.1 6.4 29.5 9.6 45.5 9.6 16.6 0 32-3.2 46-9.6 14.1-6.4 26.3-14.8 37.2-25.6 10.8-10.3 19.2-22.4 24.9-36.5 5.8-14.1 9-29.5 9-45.5v-359.6zm126.1 0v77.4h78v389.8h77.5v-389.8h78.7v-77.4zm479.4 0h-194.6v467.2h194.6v-77.5h-116.5v-117.7h106.9v-78.1h-106.9v-115.9h116.5zm275.8 311.7c0-13.4-2.6-26.2-7-38.4-4.5-12.1-10.9-23-19.2-32.6 11.5-10.9 20.4-23.1 26.2-37.1 5.8-14.1 9-29.5 9-46.8v-38.4c0-16.6-3.2-32-9-46-5.8-14.1-14.1-26.3-25-37.2-10.8-10.2-23-18.5-37.1-24.9-14.1-6.4-29.4-9.6-46.1-9.6h-116.4v467.2h78v-195.2h28.8c10.9 0 19.9 3.8 27.6 11.5 7.6 7.7 11.5 17.3 11.5 28.2v126.7c0 8.3 0.6 14.7 1.3 19.8 0.6 5.1 1.2 8.3 1.9 9.6h81.9c-3.2-5.1-5.1-9.6-5.8-14.1-0.6-4.4-1.2-9.6-1.2-15.3zm-146-117.1v-116.5h38.4c10.9 0 20.5 3.8 28.2 11.5 7.7 7.7 11.5 16.6 11.5 27.5v38.4c0 10.9-3.8 19.9-11.5 27.5-7.7 7.7-17.3 11.6-28.2 11.6zm450-78.1v-9c0-16.6-3.2-32-9.6-46.1-6.4-14-14.8-26.2-25.6-37.1-10.9-10.2-23.1-18.5-37.2-24.3-14-5.8-29.4-9-45.4-9-16 0-31.4 3.2-45.4 9-14.1 5.8-26.3 14.1-36.5 24.3-10.9 10.9-19.2 23.1-25.6 37.1-6.4 14.1-9.6 29.5-9.6 46.1v28.8c0 19.2 4.5 37.1 12.8 53.1 8.3 16 19.8 29.5 33.9 40.4l91.5 67.8c5.8 4.5 10.3 10.2 13.5 17.3 3.2 7 5.1 14.1 5.1 21.1v25c0 10.2-3.9 19.2-11.5 26.8-7.7 7.7-16.7 11.6-27.6 11.6-10.2 0-19.2-3.9-26.8-11.6-7.7-7.6-12.2-16.6-12.8-26.8v-9.6h-78.1v9.6c0 16 3.2 31.3 9.6 45.4 6.4 14.1 14.7 26.2 25.6 36.5 10.2 10.9 22.4 19.2 36.5 25.6 14 6.4 29.4 9.6 45.4 9.6 16 0 31.4-3.2 45.4-9.6 14.1-6.4 26.3-14.7 37.2-25.6 10.8-10.3 19.2-22.4 25.6-36.5 6.4-14.1 9.6-29.4 9.6-45.4v-28.8c0-19.9-5.2-38.4-14.8-55.1-9.6-16.6-21.7-30.7-35.8-42.2l-88.3-64c-6.4-4.5-10.9-10.3-14.1-17.3-3.2-7-4.5-14.1-4.5-21.8v-24.3c0-10.9 3.9-19.8 11.5-27.5 7.7-7.7 16.7-11.5 26.9-11.5 10.9 0 19.9 3.8 27.5 11.5 7.7 7.7 11.6 16.6 12.2 27.5v9z" />
    </g>
    <path fill="white" d="m41.1 746l3.4-20.2 3.4 20.2zm9.5 16h8l-9-48.2h-10.1l-9 48.2h8l1.6-9h9zm14.5-48.2v48.2h7.6v-28.3l8.5 28.3h8.2v-48.2h-7.7v29l-8.5-29zm64.6 32.2l3.4-20.1 3.4 20.1zm9.4 16h8l-8.9-48.2h-10.1l-9 48.2h8l1.6-9h9zm14.5-48.1v48.1h12c1.7 0 3.3-0.3 4.8-0.9 1.4-0.7 2.7-1.6 3.8-2.7 1.1-1 2-2.3 2.6-3.7 0.6-1.5 0.9-3.1 0.9-4.7v-24.1c0-1.7-0.3-3.3-0.9-4.7-0.6-1.5-1.5-2.7-2.6-3.8-1.1-1.1-2.4-1.9-3.8-2.6-1.5-0.7-3.1-1-4.8-1zm16.1 36c0 1.2-0.4 2.2-1.2 3-0.8 0.8-1.8 1.2-2.9 1.2h-4v-32.1h4c1.1 0 2.1 0.4 2.9 1.1 0.8 0.8 1.2 1.8 1.2 2.9zm32.4-36.1l-5.6 34.2-5.5-34.2h-8l8.4 48.2h10.1l8.6-48.2zm22.7 32.2l3.4-20.1 3.4 20.1zm9.5 16h8l-9-48.2h-10.1l-9 48.2h8l1.6-9h9zm14.5-48.1v48.1h7.6v-28.3l8.5 28.3h8.2v-48.1h-7.7v28.9l-8.5-28.9zm55.8 12v-0.9c0-1.7-0.3-3.3-0.9-4.7-0.6-1.5-1.5-2.7-2.6-3.9-1.1-1.1-2.4-1.9-3.9-2.6-1.4-0.7-3-1-4.7-1-1.7 0-3.2 0.3-4.6 1-1.5 0.7-2.7 1.5-3.9 2.6-1.1 1.2-1.9 2.4-2.5 3.9-0.6 1.4-1 3-1 4.7v26.1c0 1.6 0.4 3.2 1 4.7 0.6 1.4 1.4 2.7 2.5 3.7 1.2 1.2 2.4 2 3.9 2.7 1.4 0.6 2.9 1 4.6 1 1.7 0 3.3-0.4 4.7-1 1.5-0.7 2.8-1.5 3.9-2.7 1.1-1 2-2.3 2.6-3.7 0.6-1.5 0.9-3.1 0.9-4.7v-1h-8v1c-0.1 1.1-0.5 2-1.2 2.8-0.7 0.8-1.7 1.2-2.9 1.2-1.1 0-2.1-0.4-2.9-1.2-0.8-0.8-1.1-1.7-1.1-2.8v-26.1c0-1.1 0.3-2.1 1.1-2.9 0.8-0.8 1.8-1.2 2.9-1.2 1.2 0 2.2 0.4 2.9 1.2 0.7 0.8 1.1 1.8 1.2 2.9v0.9zm26.8-12h-20v48.1h20v-7.9h-12v-12.2h11v-8h-11v-12h12zm6.2 0v48.2h12c1.7 0 3.3-0.3 4.7-1 1.5-0.7 2.7-1.5 3.9-2.6 1.1-1.1 1.9-2.3 2.5-3.8 0.6-1.4 1-3 1-4.7v-24c0-1.7-0.4-3.3-1-4.8-0.6-1.4-1.4-2.7-2.5-3.8-1.2-1-2.4-1.9-3.9-2.6-1.4-0.6-3-0.9-4.7-0.9zm16 36c0 1.2-0.4 2.2-1.2 3-0.8 0.8-1.7 1.1-2.9 1.1h-3.9v-32.1h3.9c1.2 0 2.1 0.4 2.9 1.2 0.8 0.8 1.2 1.7 1.2 2.8zm45.4 1.1v-9.1c0-0.3 0-0.5 0.1-0.8 0.1-0.3 0.1-0.5 0.2-0.8l7.6 11.7-0.5 1.2c-0.2 0.6-0.7 1.1-1.4 1.4-0.6 0.2-1.4 0.3-2.1 0.3-1.1 0-2-0.3-2.8-1.1-0.8-0.8-1.2-1.8-1.2-2.9zm22.5-15.8h-8.3l-2.9 7.4-9.3-14.3c-0.4-0.6-0.6-1.3-0.6-2-0.1-0.6-0.1-1.1-0.1-1.4 0-1.1 0.3-2.1 1.1-2.9 0.7-0.7 1.6-1.1 2.5-1.1 1.3 0 2.3 0.4 3.1 1.1 0.8 0.8 1.2 1.8 1.2 2.9v5.7h8v-5.7c0-1.7-0.4-3.2-1-4.7-0.6-1.5-1.4-2.8-2.5-3.9-1.2-1.1-2.5-1.9-4-2.5-1.5-0.6-3.1-0.9-4.8-0.9-1.7 0-3.2 0.3-4.6 0.9-1.5 0.6-2.7 1.4-3.8 2.5-1.1 1.1-1.9 2.4-2.5 3.9-0.6 1.5-0.9 3-0.9 4.7v0.9c0 1.3 0.2 2.6 0.5 3.7 0.3 1.1 0.8 2.2 1.4 3.2-1 0.8-1.8 1.8-2.4 3.2-0.6 1.4-0.9 2.8-0.9 4.4v10.7c0 1.6 0.3 3.2 1 4.6 0.6 1.5 1.5 2.8 2.6 3.9 1.1 1.2 2.4 2 3.8 2.7 1.5 0.6 3 1 4.7 1 1.7 0 3.3-0.4 4.8-1 1.5-0.7 2.8-1.6 3.9-2.7l1.8 2.6h9.7l-7.3-11zm50.4-21.3h-20v48.2h8v-20.1h11v-8.1h-11v-11.9h12zm13.5 32.1l3.4-20.1 3.4 20.1zm9.5 16.1h8l-9-48.2h-10.1l-9 48.2h8l1.6-9h9zm37.4-36.2v-0.9c0-1.7-0.3-3.3-1-4.8-0.7-1.4-1.5-2.7-2.6-3.8-1.2-1-2.4-1.9-3.9-2.5-1.4-0.6-3-0.9-4.7-0.9-1.6 0-3.2 0.3-4.6 0.9-1.5 0.6-2.7 1.5-3.8 2.5-1.1 1.1-2 2.4-2.6 3.8-0.7 1.5-1 3.1-1 4.8v3c0 1.9 0.4 3.8 1.3 5.4 0.8 1.7 2 3.1 3.5 4.2l9.4 7c0.6 0.5 1.1 1.1 1.4 1.8 0.3 0.7 0.5 1.4 0.5 2.2v2.5c0 1.1-0.4 2-1.2 2.8-0.7 0.8-1.7 1.2-2.8 1.2-1 0-2-0.4-2.8-1.2-0.8-0.8-1.2-1.7-1.3-2.8v-1h-8v1c0 1.7 0.3 3.3 1 4.7 0.6 1.5 1.5 2.7 2.6 3.8 1.1 1.1 2.3 2 3.8 2.6 1.4 0.7 3 1 4.6 1 1.7 0 3.3-0.3 4.7-1 1.5-0.6 2.7-1.5 3.9-2.6 1.1-1.1 1.9-2.3 2.6-3.8 0.7-1.4 1-3 1-4.7v-2.9c0-2.1-0.5-4-1.5-5.7-1-1.7-2.3-3.2-3.7-4.4l-9.1-6.6c-0.7-0.4-1.2-1-1.5-1.7-0.3-0.8-0.4-1.5-0.4-2.3v-2.5c0-1.1 0.3-2 1.1-2.8 0.8-0.8 1.8-1.2 2.8-1.2 1.1 0 2.1 0.4 2.9 1.2 0.7 0.8 1.1 1.7 1.2 2.8v0.9zm4.8-12v8h8v40.2h8v-40.2h8.1v-8zm77.4 12v-0.9c0-1.7-0.4-3.3-1-4.8-0.7-1.4-1.5-2.7-2.7-3.8-1.1-1-2.3-1.9-3.8-2.5-1.4-0.6-3-0.9-4.7-0.9-1.6 0-3.2 0.3-4.7 0.9-1.4 0.6-2.7 1.5-3.7 2.5-1.1 1.1-2 2.4-2.7 3.8-0.6 1.5-1 3.1-1 4.8v3c0 1.9 0.5 3.8 1.4 5.4 0.8 1.7 2 3.1 3.5 4.2l9.4 7c0.6 0.5 1.1 1.1 1.4 1.8 0.3 0.7 0.5 1.4 0.5 2.2v2.5c0 1.1-0.4 2-1.2 2.8-0.8 0.8-1.7 1.2-2.8 1.2-1.1 0-2-0.4-2.8-1.2-0.8-0.8-1.2-1.7-1.3-2.8v-1h-8.1v1c0 1.7 0.4 3.3 1 4.7 0.7 1.5 1.6 2.7 2.7 3.8 1 1.1 2.3 2 3.7 2.6 1.5 0.7 3.1 1 4.7 1 1.7 0 3.3-0.3 4.7-1 1.5-0.6 2.7-1.5 3.8-2.6 1.2-1.1 2-2.3 2.7-3.8 0.6-1.4 1-3 1-4.7v-2.9c0-2.1-0.6-4-1.6-5.7-0.9-1.7-2.2-3.2-3.6-4.4l-9.2-6.6c-0.6-0.4-1.1-1-1.4-1.7-0.3-0.8-0.5-1.5-0.5-2.3v-2.5c0-1.1 0.4-2 1.2-2.8 0.8-0.8 1.7-1.2 2.8-1.2 1.1 0 2 0.4 2.8 1.2 0.8 0.8 1.2 1.7 1.3 2.8v0.9zm30.7 0.1v-0.9c0-1.8-0.4-3.3-1-4.8-0.5-1.4-1.4-2.7-2.5-3.8-1.1-1.1-2.5-2-3.9-2.7-1.5-0.6-3.1-0.9-4.8-0.9-1.6 0-3.1 0.3-4.6 0.9-1.4 0.7-2.7 1.6-3.8 2.7-1.1 1.1-2 2.4-2.6 3.8-0.6 1.5-0.9 3-0.9 4.8v26c0 1.7 0.3 3.3 0.9 4.7 0.6 1.5 1.5 2.7 2.6 3.8 1.1 1.1 2.4 2 3.8 2.6 1.5 0.7 3 1 4.6 1 1.7 0 3.3-0.3 4.8-1 1.4-0.6 2.8-1.5 3.9-2.6 1.1-1.1 2-2.3 2.5-3.8 0.6-1.4 1-3 1-4.7v-1h-8.1v1c0 1.2-0.4 2.1-1.2 2.9-0.7 0.8-1.7 1.2-2.9 1.2-1.1 0-2-0.4-2.8-1.2-0.8-0.8-1.2-1.7-1.2-2.9v-26c0-1.2 0.4-2.1 1.2-2.9 0.8-0.8 1.7-1.2 2.8-1.2 1.2 0 2.2 0.4 2.9 1.2 0.8 0.8 1.2 1.7 1.2 2.9v0.9zm29.9 20.1c0-1.4-0.2-2.8-0.7-4-0.5-1.3-1.1-2.4-2-3.4 1.2-1.1 2.1-2.3 2.7-3.8 0.6-1.5 0.9-3 0.9-4.8v-4c0-1.7-0.3-3.3-0.9-4.7-0.6-1.5-1.4-2.7-2.6-3.9-1.1-1-2.3-1.9-3.8-2.5-1.4-0.7-3-1-4.7-1h-12v48.2h8v-20.2h3c1.1 0 2 0.4 2.8 1.2 0.8 0.8 1.2 1.8 1.2 2.9v13.1c0 0.8 0.1 1.5 0.1 2 0.1 0.6 0.2 0.9 0.2 1h8.5c-0.4-0.5-0.6-1-0.6-1.4-0.1-0.5-0.1-1-0.1-1.6zm-15.1-12.1v-12h4c1.1 0 2.1 0.4 2.9 1.2 0.8 0.8 1.2 1.7 1.2 2.8v4c0 1.1-0.4 2-1.2 2.8-0.8 0.8-1.8 1.2-2.9 1.2zm31.8 12.1l3.4-20.1 3.4 20.1zm9.5 16h8l-9-48.2h-10.1l-9 48.2h8l1.6-9h9zm14.5-48.1v48.1h8.1v-20.1h4c1.7 0 3.3-0.3 4.7-0.9 1.5-0.6 2.7-1.5 3.8-2.6 1.2-1 2-2.3 2.6-3.7 0.6-1.5 0.9-3.1 0.9-4.8v-4c0-1.7-0.3-3.3-0.9-4.7-0.6-1.5-1.4-2.7-2.6-3.8-1.1-1.1-2.3-1.9-3.8-2.6-1.4-0.7-3-1-4.7-1zm8 20v-12h4c1.1 0 2.1 0.4 2.9 1.2 0.8 0.8 1.2 1.7 1.2 2.8v4c0 1.1-0.4 2-1.2 2.8-0.8 0.8-1.8 1.2-2.9 1.2zm45-20v48.2h7.5v-28.4l5 28.4h5.8l5-28.4v28.4h7.6v-48.2h-10.1l-5.4 31.4-5.5-31.4zm59.1 0h-20v48.2h20v-8h-12v-12.1h11v-8.1h-11v-11.9h12zm29.7 12v-0.9c0-1.7-0.4-3.3-1-4.7-0.6-1.5-1.4-2.7-2.5-3.9-1.2-1.1-2.5-2-3.9-2.6-1.5-0.7-3.1-1-4.8-1-1.6 0-3.2 0.3-4.6 1-1.5 0.6-2.7 1.5-3.8 2.6-1.2 1.2-2 2.4-2.6 3.9-0.6 1.4-0.9 3-0.9 4.7v26.1c0 1.6 0.3 3.2 0.9 4.7 0.6 1.4 1.4 2.7 2.6 3.7 1.1 1.1 2.3 2 3.8 2.7 1.4 0.6 3 1 4.6 1 1.7 0 3.3-0.4 4.8-1 1.4-0.7 2.7-1.6 3.9-2.7 1.1-1 1.9-2.3 2.5-3.7 0.6-1.5 1-3.1 1-4.7v-1h-8.1v1c-0.1 1.1-0.5 2-1.2 2.8-0.7 0.8-1.7 1.2-2.9 1.2-1.1 0-2-0.4-2.8-1.2-0.8-0.8-1.2-1.7-1.2-2.8v-26.1c0-1.1 0.4-2.1 1.2-2.9 0.8-0.8 1.7-1.2 2.8-1.2 1.2 0 2.2 0.4 2.9 1.2 0.7 0.8 1.1 1.8 1.2 2.9v0.9zm22.8-12v20h-8v-20h-8v48.1h8v-20.1h8v20.1h8.1v-48.1zm24.5 32.1l3.3-20.1 3.5 20.1zm9.4 16h8l-9-48.1h-10.1l-9 48.1h8l1.6-8.9h9.1zm14.5-48.2v48.2h7.5v-28.4l8.5 28.4h8.2v-48.2h-7.7v28.9l-8.5-28.9zm48.1 41.1h-4v-34.1h4v-7h-16.1v7h4v34.1h-4v7.1h16.1zm31.5-29.1v-0.9c0-1.7-0.4-3.3-1-4.8-0.6-1.4-1.4-2.7-2.5-3.8-1.2-1.1-2.5-2-3.9-2.6-1.5-0.7-3.1-1-4.8-1-1.6 0-3.2 0.3-4.6 1-1.5 0.6-2.7 1.5-3.8 2.6-1.2 1.1-2 2.4-2.6 3.8-0.6 1.5-0.9 3.1-0.9 4.8v26.1c0 1.6 0.3 3.2 0.9 4.7 0.6 1.4 1.4 2.7 2.6 3.7 1.1 1.1 2.3 2 3.8 2.7 1.4 0.6 3 0.9 4.6 0.9 1.7 0 3.3-0.3 4.8-0.9 1.4-0.7 2.7-1.6 3.9-2.7 1.1-1 1.9-2.3 2.5-3.7 0.6-1.5 1-3.1 1-4.7v-1h-8.1v1c-0.1 1.1-0.5 2-1.2 2.8-0.7 0.8-1.7 1.2-2.9 1.2-1.1 0-2-0.4-2.8-1.2-0.8-0.8-1.2-1.7-1.2-2.8v-26.1c0-1.1 0.4-2.1 1.2-2.9 0.8-0.8 1.7-1.2 2.8-1.2 1.2 0 2.2 0.4 2.9 1.2 0.7 0.8 1.1 1.8 1.2 2.9v0.9zm54.3 0v-0.9c0-1.7-0.4-3.3-1-4.8-0.6-1.4-1.4-2.7-2.5-3.8-1.2-1.1-2.5-2-3.9-2.6-1.5-0.7-3.1-1-4.8-1-1.6 0-3.2 0.3-4.6 1-1.5 0.6-2.7 1.5-3.8 2.6-1.2 1.1-2 2.4-2.6 3.8-0.6 1.5-0.9 3.1-0.9 4.8v26.1c0 1.6 0.3 3.2 0.9 4.7 0.6 1.4 1.4 2.7 2.6 3.7 1.1 1.1 2.3 2 3.8 2.7 1.4 0.6 3 0.9 4.6 0.9 1.7 0 3.3-0.3 4.8-0.9 1.4-0.7 2.7-1.6 3.9-2.7 1.1-1 1.9-2.3 2.5-3.7 0.6-1.5 1-3.1 1-4.7v-1h-8.1v1c-0.1 1.1-0.5 2-1.2 2.8-0.7 0.8-1.7 1.2-2.9 1.2-1.1 0-2-0.4-2.8-1.2-0.8-0.8-1.2-1.7-1.2-2.8v-26.1c0-1.1 0.4-2.1 1.2-2.9 0.8-0.8 1.7-1.2 2.8-1.2 1.2 0 2.2 0.4 2.9 1.2 0.7 0.8 1.1 1.8 1.2 2.9v0.9zm9.7-9.6c-1.1 1.2-2 2.4-2.6 3.9-0.6 1.4-0.9 3-0.9 4.7v26.1c0 1.6 0.3 3.2 0.9 4.7 0.6 1.4 1.5 2.7 2.6 3.7 1.1 1.2 2.4 2 3.8 2.7 1.5 0.6 3 1 4.7 1 1.7 0 3.3-0.4 4.7-1 1.5-0.7 2.8-1.5 3.9-2.7 1.1-1 2-2.3 2.6-3.7 0.6-1.5 0.9-3.1 0.9-4.7v-26.1c0-1.7-0.3-3.3-0.9-4.7-0.6-1.5-1.5-2.7-2.6-3.9-1.1-1-2.4-1.9-3.9-2.5-1.4-0.7-3-1-4.7-1-1.7 0-3.2 0.3-4.7 1-1.4 0.6-2.7 1.5-3.8 2.5zm4.5 34.7v-26.1c0-1.1 0.4-2 1.2-2.8 0.8-0.8 1.7-1.2 2.8-1.2 1.2 0 2.2 0.4 3 1.2 0.8 0.8 1.2 1.7 1.2 2.8v26.1c0 1.1-0.4 2-1.2 2.8-0.8 0.8-1.8 1.2-3 1.2-1.1 0-2-0.4-2.8-1.2-0.8-0.8-1.2-1.7-1.2-2.8zm23.8-37.2v48.2h7.5v-28.4l5.1 28.4h5.7l5-28.4v28.4h7.6v-48.2h-10l-5.5 31.4-5.4-31.4zm39 0v48.2h8v-20.1h4c1.7 0 3.3-0.3 4.8-0.9 1.4-0.6 2.7-1.5 3.8-2.6 1.1-1.1 2-2.3 2.6-3.8 0.6-1.4 0.9-3 0.9-4.7v-4c0-1.7-0.3-3.3-0.9-4.7-0.6-1.5-1.5-2.7-2.6-3.9-1.1-1-2.4-1.9-3.8-2.5-1.5-0.7-3.1-1-4.8-1zm8.1 20v-12h3.9c1.1 0 2.1 0.4 2.9 1.1 0.8 0.8 1.2 1.8 1.2 2.9v3.9c0 1.2-0.4 2.1-1.2 2.9-0.8 0.8-1.8 1.2-2.9 1.2zm36.8-20v37.1c0 1.1-0.4 2-1.2 2.8-0.8 0.8-1.7 1.2-2.8 1.2-1.2 0-2.2-0.4-2.9-1.2-0.8-0.8-1.2-1.7-1.2-2.8v-37.1h-8v37.1c0 1.6 0.3 3.2 0.9 4.7 0.6 1.4 1.5 2.7 2.6 3.7 1.1 1.1 2.4 2 3.9 2.7 1.4 0.6 3 0.9 4.7 0.9 1.7 0 3.3-0.3 4.7-0.9 1.5-0.7 2.7-1.6 3.8-2.7 1.2-1 2-2.3 2.6-3.7 0.6-1.5 0.9-3.1 0.9-4.7v-37.1zm13.6 0v8h8v40.2h8v-40.2h8.1v-8zm50.6 0h-20v48.2h20v-8h-12v-12.2h11.1v-8h-11.1v-12h12zm29.3 32.2c0-1.4-0.3-2.7-0.7-4-0.5-1.2-1.2-2.4-2-3.4 1.2-1.1 2.1-2.3 2.7-3.8 0.6-1.4 0.9-3 0.9-4.8v-4c0-1.7-0.3-3.3-0.9-4.7-0.6-1.5-1.5-2.7-2.6-3.8-1.1-1.1-2.4-2-3.8-2.6-1.5-0.7-3.1-1-4.8-1h-12v48.2h8.1v-20.2h2.9c1.2 0 2.1 0.4 2.9 1.2 0.8 0.8 1.2 1.8 1.2 2.9v13.1c0 0.9 0 1.5 0.1 2 0.1 0.6 0.1 0.9 0.2 1h8.4c-0.3-0.5-0.5-1-0.6-1.4 0-0.5-0.1-1-0.1-1.6zm-15-12.1v-12h3.9c1.1 0 2.1 0.4 2.9 1.2 0.8 0.8 1.2 1.7 1.2 2.8v4c0 1.1-0.4 2-1.2 2.8-0.8 0.8-1.8 1.2-2.9 1.2zm47.5-20v48.1h7.6v-28.3l5 28.3h5.7l5-28.3v28.3h7.6v-48.1h-10l-5.5 31.3-5.4-31.3zm41.9 2.5c-1.1 1.1-2 2.3-2.6 3.8-0.5 1.4-0.9 3-0.9 4.7v26.1c0 1.7 0.4 3.3 0.9 4.7 0.6 1.5 1.5 2.7 2.6 3.8 1.1 1.1 2.4 1.9 3.8 2.6 1.5 0.7 3 1 4.7 1 1.7 0 3.3-0.3 4.7-1 1.5-0.7 2.8-1.5 3.9-2.6 1.1-1.1 2-2.3 2.6-3.8 0.6-1.4 0.9-3 0.9-4.7v-26.1c0-1.7-0.3-3.3-0.9-4.7-0.6-1.5-1.5-2.7-2.6-3.8-1.1-1.1-2.4-1.9-3.9-2.6-1.4-0.7-3-1-4.7-1-1.7 0-3.2 0.3-4.7 1-1.4 0.7-2.7 1.5-3.8 2.6zm4.5 34.6v-26.1c0-1.1 0.4-2 1.2-2.8 0.8-0.8 1.7-1.2 2.8-1.2 1.2 0 2.2 0.4 3 1.2 0.8 0.8 1.2 1.7 1.2 2.8v26.1c0 1.1-0.4 2.1-1.2 2.9-0.8 0.7-1.8 1.1-3 1.1-1.1 0-2-0.4-2.8-1.1-0.8-0.8-1.2-1.8-1.2-2.9zm23.8-37.1v48.1h12c1.8 0 3.3-0.3 4.8-0.9 1.5-0.7 2.7-1.6 3.8-2.7 1.1-1 2-2.3 2.6-3.8 0.6-1.4 0.9-3 0.9-4.6v-24.1c0-1.7-0.3-3.3-0.9-4.7-0.6-1.5-1.5-2.7-2.6-3.8-1.1-1.1-2.3-2-3.8-2.6-1.5-0.7-3-1-4.8-1zm16.1 36c0 1.2-0.4 2.2-1.2 3-0.8 0.8-1.8 1.2-2.9 1.2h-4v-32.2h4c1.1 0 2.1 0.4 2.9 1.2 0.8 0.8 1.2 1.8 1.2 2.9z" />
</svg>